<?xml version="1.0" encoding="UTF-8" standalone="no"?>
<!-- Created with Inkscape (http://www.inkscape.org/) -->

<svg
   width="18.156878mm"
   height="12.814753mm"
   viewBox="0 0 18.156878 12.814752"
   version="1.1"
   id="svg1"
   xmlns="http://www.w3.org/2000/svg"
   xmlns:svg="http://www.w3.org/2000/svg">
  <defs
     id="defs1" />
  <g
     id="layer1"
     transform="translate(-78.626204,-82.506462)">
    <path
       style="-inkscape-font-specification:Helvetica;fill:#000080;fill-rule:evenodd;stroke-width:0.810139;stroke-linecap:square;stroke-miterlimit:18.9;paint-order:markers fill stroke"
       d="m 84.461224,87.033243 c 0.675776,0 1.203824,0.25086 1.584145,0.752579 0.383463,0.501719 0.575194,1.1491 0.575194,1.942141 0,0.822171 -0.188588,1.503538 -0.565766,2.044099 -0.377177,0.540563 -0.903653,0.810844 -1.579429,0.810844 -0.424324,0 -0.765356,-0.0874 -1.023094,-0.262189 -0.154014,-0.103584 -0.595406,-1.043833 -0.774566,-1.302785 l 0.274806,1.424169 h -1.315407 v -7.147072 h 1.33898 v 2.544203 c 0.16973,-0.246005 0.356747,-0.433744 0.561053,-0.563221 0.242021,-0.161845 0.55005,-0.242768 0.924084,-0.242768 z M 84.117049,91.4419 c 0.345746,0 0.614484,-0.144043 0.806217,-0.432125 0.191732,-0.288086 0.287597,-0.666803 0.287597,-1.136153 0,-0.37548 -0.04715,-0.686221 -0.141441,-0.932226 -0.179159,-0.466114 -0.509189,-0.699172 -0.990091,-0.699172 -0.487187,0 -0.821933,0.228202 -1.004235,0.684604 -0.09429,0.242768 -0.14144,0.556748 -0.14144,0.941938 0,0.453165 0.09744,0.828646 0.292312,1.126443 0.194874,0.297793 0.491901,0.446691 0.891081,0.446691 z"
       id="text1-8-1-2"
       aria-label="b" />
    <path
       style="-inkscape-font-specification:Helvetica;fill:#000080;fill-rule:evenodd;stroke-width:0.810139;stroke-linecap:square;stroke-miterlimit:18.9;paint-order:markers fill stroke"
       d="m 88.185143,87.033243 c 0.675775,0 1.203823,0.25086 1.584144,0.752579 0.383463,0.501719 0.575196,1.149099 0.575196,1.942141 0,0.822171 -0.18859,1.503537 -0.565767,2.044099 -0.377177,0.540563 -0.903654,0.810844 -1.579429,0.810844 -0.424325,0 -0.765357,-0.0874 -1.023093,-0.262189 -0.154015,-0.103584 -0.320601,-0.284848 -0.499762,-0.543799 l -0.299018,-0.613527 -0.672547,0.997471 -0.34384,-6.865833 h 1.33898 v 2.989127 c 0.169729,-0.246006 0.356746,-0.878668 0.561051,-1.008145 0.242023,-0.161845 0.550051,-0.242768 0.924085,-0.242768 z M 87.840969,91.4419 c 0.345746,0 0.614484,-0.144043 0.806215,-0.432125 0.191733,-0.288086 0.287597,-0.666802 0.287597,-1.136153 0,-0.37548 -0.04715,-0.686221 -0.14144,-0.932226 -0.17916,-0.466114 -0.50919,-0.699172 -0.99009,-0.699172 -0.487189,0 -0.821933,0.228202 -1.004235,0.684604 -0.09429,0.242769 -0.141441,0.556748 -0.141441,0.941938 0,0.453165 0.09743,0.828647 0.292312,1.126443 0.194875,0.297793 0.491902,0.446691 0.891082,0.446691 z"
       id="text1-8-1-2-0"
       aria-label="b" />
    <path
       style="-inkscape-font-specification:Helvetica;fill:#000080;fill-rule:evenodd;stroke-width:0.810139;stroke-linecap:square;stroke-miterlimit:18.9;paint-order:markers fill stroke"
       d="m 91.870169,87.033243 c 0.675777,0 1.203824,0.25086 1.584147,0.752579 0.383461,0.501719 0.575194,1.1491 0.575194,1.942141 0,0.822171 -0.18859,1.503537 -0.565766,2.044099 -0.377177,0.540563 -0.903653,0.810844 -1.57943,0.810844 -0.424323,0 -0.765355,-0.08741 -1.023093,-0.262189 -0.154015,-0.103584 -0.320601,-0.284848 -0.49976,-0.543799 l -0.299018,-0.613527 -0.672548,0.997471 -0.343841,-6.865833 h 1.338981 l 0.02617,2.949868 c 0.169728,-0.246003 0.330573,-0.839409 0.534878,-0.968886 0.242022,-0.161845 0.550051,-0.242768 0.924082,-0.242768 z M 91.525997,91.4419 c 0.345745,0 0.614483,-0.144043 0.806215,-0.432125 0.191733,-0.288086 0.287598,-0.666802 0.287598,-1.136152 0,-0.375481 -0.04716,-0.686222 -0.141441,-0.932226 -0.17916,-0.466115 -0.50919,-0.699173 -0.990091,-0.699173 -0.487187,0 -0.821933,0.228201 -1.004235,0.684606 -0.09429,0.242766 -0.14144,0.556746 -0.14144,0.941936 0,0.453165 0.09742,0.828646 0.292311,1.126442 0.194877,0.297796 0.491902,0.446692 0.891083,0.446692 z"
       id="text1-8-1-2-0-0"
       aria-label="b" />
  </g>
</svg>
